<svg width="20" height="20" viewBox="0 0 20 20" fill="none" xmlns="http://www.w3.org/2000/svg">
<path d="M11.2123 6.21249C11.3884 6.04485 11.6227 5.95218 11.8659 5.95402C12.109 5.95586 12.3419 6.05207 12.5154 6.22235C12.6889 6.39264 12.7895 6.62367 12.7959 6.86671C12.8024 7.10975 12.7141 7.34578 12.5498 7.52499L7.56233 13.7625C7.47657 13.8549 7.37306 13.929 7.258 13.9805C7.14293 14.0319 7.01867 14.0596 6.89264 14.062C6.76662 14.0643 6.64142 14.0412 6.52453 13.994C6.40763 13.9469 6.30145 13.8766 6.21233 13.7875L2.90483 10.48C2.81272 10.3942 2.73884 10.2907 2.6876 10.1757C2.63636 10.0607 2.60881 9.93652 2.60659 9.81065C2.60437 9.68477 2.62753 9.55973 2.67468 9.443C2.72183 9.32626 2.79201 9.22022 2.88103 9.1312C2.97006 9.04217 3.0761 8.97199 3.19283 8.92484C3.30957 8.87769 3.43461 8.85453 3.56048 8.85675C3.68636 8.85897 3.8105 8.88653 3.9255 8.93777C4.0405 8.98901 4.144 9.06288 4.22983 9.15499L6.84733 11.7712L11.1873 6.23999C11.1951 6.23034 11.2035 6.22116 11.2123 6.21249ZM10.0623 12.6375L11.2123 13.7875C11.3014 13.8764 11.4075 13.9465 11.5243 13.9936C11.6411 14.0406 11.7661 14.0636 11.892 14.0613C12.0179 14.059 12.142 14.0313 12.257 13.98C12.3719 13.9286 12.4753 13.8547 12.5611 13.7625L17.5511 7.52499C17.6407 7.43649 17.7116 7.33084 17.7595 7.21434C17.8074 7.09783 17.8313 6.97287 17.8299 6.84692C17.8284 6.72096 17.8016 6.59659 17.751 6.48124C17.7004 6.36589 17.627 6.26191 17.5353 6.17553C17.4437 6.08915 17.3355 6.02212 17.2174 5.97846C17.0992 5.9348 16.9735 5.9154 16.8476 5.92142C16.7218 5.92744 16.5985 5.95875 16.4851 6.01348C16.3716 6.06822 16.2703 6.14525 16.1873 6.23999L11.8461 11.7712L11.2398 11.1637L10.0611 12.6375H10.0623Z" fill="#7BBCB0"/>
</svg>
